<svg width="1360" height="251" viewBox="0 0 1360 251" fill="none" xmlns="http://www.w3.org/2000/svg">
<path d="M530.401 4.31368H478.721V246.514H530.401V4.31368Z" fill="#424242"/>
<path d="M323.681 0.113281C251.601 0.113281 198.561 56.1133 198.561 124.713C198.561 193.313 250.241 249.313 323.681 249.313C397.121 249.313 448.801 193.313 448.801 124.713C448.801 56.1133 397.121 0.113281 323.681 0.113281ZM394.401 126.113C394.401 168.113 365.841 201.713 323.681 201.713C281.521 201.713 252.961 166.713 252.961 126.113C252.961 84.1133 281.521 50.5133 323.681 50.5133C365.841 49.1133 394.401 84.1133 394.401 126.113Z" fill="#424242"/>
<path d="M111.52 100.913C70.72 91.1134 61.2 85.5134 61.2 70.1134C61.2 58.9134 72.08 49.1134 91.12 49.1134C111.52 49.1134 131.92 57.5134 152.32 72.9134L179.52 32.3134C155.04 11.3134 126.48 0.113434 91.12 0.113434C43.52 0.113434 9.52 29.5134 9.52 72.9134C9.52 120.513 39.44 134.513 87.04 147.113C126.48 156.913 134.64 163.913 134.64 177.913C134.64 191.913 122.4 200.313 100.64 200.313C73.44 200.313 51.68 189.113 29.92 170.913L0 211.513C28.56 238.113 63.92 250.713 99.28 250.713C149.6 250.713 184.96 224.113 184.96 175.113C186.32 131.713 159.12 113.513 111.52 100.913Z" fill="#424242"/>
<path d="M622.879 4.31368H571.199V246.514H739.839V197.514H622.879V4.31368Z" fill="#424242"/>
<path d="M1278.4 121.914L1357.28 4.31368H1297.44L1248.48 82.7137L1198.16 4.31368H1138.32L1217.2 123.314L1135.6 246.514H1194.08L1247.12 163.914L1300.16 246.514H1360L1278.4 121.914Z" fill="#424242"/>
<path d="M1117.92 4.31368H1066.24V246.514H1117.92V4.31368Z" fill="#424242"/>
<path d="M844.56 4.31368L787.44 100.914L731.68 4.31368H670.48L761.6 151.314V246.514H813.28V149.914L873.12 53.3137H923.44V246.514H975.12V53.3137H1047.2V4.31368H844.56Z" fill="#424242"/>
</svg>
